<svg width="75" height="29" viewBox="0 0 75 29" fill="none" xmlns="http://www.w3.org/2000/svg">
<g filter="url(#filter0_d_10890_8294)">
<path d="M4.00001 18.1785L46.6487 18.1785V2.7568L4.00001 2.7568V18.1785Z" fill="#B0B0B0"/>
<path d="M46.4266 17.9567V2.98425L4.22733 2.98425V17.9567L46.4266 17.9567Z" fill="#525D68"/>
<path d="M43.7835 2.75745V18.1789" stroke="#A7B1B9" stroke-miterlimit="10"/>
<path d="M40.7078 2.75879V18.1802" stroke="#A7B1B9" stroke-miterlimit="10"/>
<path d="M37.63 2.76001V18.1815" stroke="#A7B1B9" stroke-miterlimit="10"/>
<path d="M34.5562 2.7605V18.1819" stroke="#A7B1B9" stroke-miterlimit="10"/>
<path d="M31.4771 2.75916V18.1806" stroke="#A7B1B9" stroke-miterlimit="10"/>
<path d="M28.4007 2.75867V18.1801" stroke="#A7B1B9" stroke-miterlimit="10"/>
<path d="M25.3244 2.75867V18.1801" stroke="#A7B1B9" stroke-miterlimit="10"/>
<path d="M22.2474 2.75684V18.1783" stroke="#A7B1B9" stroke-miterlimit="10"/>
<path d="M19.1706 2.76038V18.1818" stroke="#A7B1B9" stroke-miterlimit="10"/>
<path d="M16.0943 2.76038V18.1818" stroke="#A7B1B9" stroke-miterlimit="10"/>
<path d="M13.0161 2.76074V18.1822" stroke="#A7B1B9" stroke-miterlimit="10"/>
<path d="M9.9436 2.75952V18.181" stroke="#A7B1B9" stroke-miterlimit="10"/>
<path d="M6.86559 2.76025L6.86559 18.1817" stroke="#A7B1B9" stroke-miterlimit="10"/>
<path d="M65.4532 2.30823L67.0376 2.30823C69.2253 2.30823 70.9989 4.08179 70.9989 6.26948V14.667C70.9989 16.8547 69.2253 18.6282 67.0376 18.6282H65.4532C65.1792 18.6282 64.9573 18.4061 64.9573 18.1324V2.80434C64.9573 2.53012 65.1794 2.30823 65.4532 2.30823Z" fill="#363636"/>
<path d="M47.3787 2.75708L67.3164 2.75708C69.1045 2.75708 70.5542 4.20679 70.5542 5.99494V14.9409C70.5542 16.729 69.1045 18.1787 67.3164 18.1787H47.3787V2.75708Z" fill="#4F46E5"/>
<path d="M69.2708 13.3465L70.7037 13.6239V7.33545L69.2708 7.61281C68.7551 7.71253 68.3826 8.16417 68.3826 8.68948V12.2698C68.3823 12.7951 68.7549 13.2468 69.2708 13.3465Z" fill="#F1F1F1"/>
<path d="M70.7037 10.4702V7.33545L69.2708 7.61281C68.7551 7.71253 68.3826 8.16417 68.3826 8.68948V10.4704L70.7037 10.4702Z" fill="#F1F1F1"/>
<path d="M70.4758 10.2458V7.60779L69.3104 7.83327C68.901 7.91278 68.6039 8.27256 68.6039 8.68962V10.246H70.4758V10.2458Z" fill="#7F7F7F"/>
<path d="M68.3803 10.4698V12.2695C68.3803 12.7948 68.7529 13.2464 69.2685 13.3461L70.7014 13.6235V10.4698H68.3803Z" fill="#F1F1F1"/>
<path d="M70.4778 10.6907H68.6058V12.2659C68.6058 12.6828 68.9027 13.0428 69.3124 13.1223L70.4778 13.3478V10.6907Z" fill="#7F7F7F"/>
<path d="M47.381 16.7126H58.4648C59.6113 16.7126 60.5408 15.783 60.5408 14.6365V6.35196C60.5408 5.20544 59.6115 4.27588 58.4648 4.27588L47.381 4.27588V16.7126Z" fill="#E4E4E4"/>
<path d="M68.3829 10.4674H63.4654" stroke="#E4E4E4" stroke-width="0.25" stroke-miterlimit="10"/>
<path d="M68.5042 8.51837L63.4054 7.49561" stroke="#E4E4E4" stroke-width="0.25" stroke-miterlimit="10"/>
<path d="M68.5016 12.4348L63.4028 13.4574" stroke="#E4E4E4" stroke-width="0.25" stroke-miterlimit="10"/>
<path d="M61.1356 15.625L63.1798 15.8042C63.3327 15.8177 63.4654 15.7101 63.4654 15.5726V5.37014C63.4654 5.23269 63.3327 5.12512 63.1798 5.13859L61.1356 5.31781C60.9281 5.336 60.7697 5.49209 60.7697 5.6785V15.2641C60.7697 15.4507 60.9281 15.6068 61.1356 15.625Z" fill="#363636"/>
<path d="M61.5408 3.59698L61.8178 3.59008C61.9042 3.58793 61.9731 3.51654 61.9717 3.43061L61.9617 2.78052C61.9604 2.6946 61.8893 2.62669 61.803 2.62885L61.526 2.63575C61.4396 2.6379 61.3707 2.70929 61.3721 2.79522L61.3821 3.44531C61.3837 3.53123 61.4547 3.59913 61.5408 3.59698Z" fill="#666666"/>
<path d="M61.7884 3.06037L61.9652 3.05383L61.9577 2.04762L61.7809 2.05415L61.7884 3.06037Z" fill="#666666"/>
<path d="M61.6633 2.34614L61.9798 2.3364C62.1096 2.33241 62.2137 2.22549 62.2123 2.0977L62.1912 0.231306C62.1898 0.103514 62.0833 0.0030797 61.9536 0.0070733L61.637 0.0168143C61.5072 0.0208078 61.4031 0.127722 61.4046 0.255514L61.4256 2.12191C61.4271 2.24993 61.5335 2.35014 61.6633 2.34614Z" fill="#4E4E4E"/>
<path d="M68.427 4.60915L68.5845 4.60523C68.6336 4.60401 68.6727 4.56344 68.672 4.5146L68.6663 4.14512C68.6655 4.09628 68.6251 4.0577 68.5761 4.05892L68.4186 4.06285C68.3695 4.06407 68.3304 4.10463 68.3311 4.15347L68.3368 4.52295C68.3378 4.57179 68.3782 4.61037 68.427 4.60915Z" fill="#666666"/>
<path d="M68.5669 4.30327L68.6674 4.29956L68.6631 3.72773L68.5627 3.73144L68.5669 4.30327Z" fill="#666666"/>
<path d="M68.4938 3.89533L68.6737 3.88979C68.7474 3.88752 68.8067 3.82685 68.8059 3.75406L68.7939 2.69318C68.7931 2.62061 68.7327 2.56339 68.6588 2.56567L68.4789 2.5712C68.405 2.57348 68.3459 2.63414 68.3467 2.70694L68.3587 3.76782C68.3595 3.84062 68.4199 3.8976 68.4938 3.89533Z" fill="#4E4E4E"/>
<path d="M61.5361 17.3468L61.8131 17.3399C61.8994 17.3378 61.9705 17.4057 61.9718 17.4916L61.9819 18.1417C61.9832 18.2276 61.9143 18.299 61.8279 18.3011L61.551 18.308C61.4646 18.3102 61.3936 18.2423 61.3922 18.1564L61.3822 17.5063C61.3811 17.4203 61.45 17.349 61.5361 17.3468Z" fill="#666666"/>
<path d="M61.8124 18.8892L61.9892 18.8827L61.9817 17.8765L61.8049 17.883L61.8124 18.8892Z" fill="#666666"/>
<path d="M61.6468 18.602L61.9634 18.5923C62.0931 18.5883 62.1996 18.6887 62.201 18.8165L62.2221 20.6829C62.2235 20.8107 62.1194 20.9176 61.9896 20.9216L61.6731 20.9314C61.5433 20.9353 61.4369 20.8349 61.4354 20.7071L61.4144 18.8407C61.4129 18.7129 61.5171 18.606 61.6468 18.602Z" fill="#4E4E4E"/>
<path d="M68.4093 16.3386L68.5667 16.3347C68.6158 16.3335 68.6562 16.372 68.6569 16.4209L68.6626 16.7904C68.6634 16.8392 68.6243 16.8798 68.5752 16.881L68.4177 16.8849C68.3686 16.8861 68.3283 16.8476 68.3275 16.7987L68.3218 16.4292C68.3213 16.3804 68.3604 16.3398 68.4093 16.3386Z" fill="#666666"/>
<path d="M68.5776 17.2057L68.6781 17.202L68.6738 16.6302L68.5734 16.6339L68.5776 17.2057Z" fill="#666666"/>
<path d="M68.4804 17.0462L68.6603 17.0406C68.734 17.0384 68.7947 17.0954 68.7955 17.1682L68.8075 18.229C68.8083 18.3016 68.7492 18.3625 68.6753 18.3648L68.4954 18.3703C68.4214 18.3726 68.361 18.3156 68.3602 18.2428L68.3483 17.1819C68.3474 17.1093 68.4065 17.0485 68.4804 17.0462Z" fill="#4E4E4E"/>
<path d="M69.476 16.0643L70.026 16.0461L70.0059 13.999L69.9616 14.0005C69.6824 14.0097 69.4608 14.5239 69.4669 15.1477L69.476 16.0643Z" fill="#E4E4E4"/>
<path d="M70.0137 16.2578L70.0095 16.0448L69.4676 16.056L69.4776 16.5737C69.5414 16.5883 69.6041 16.5961 69.6648 16.5994C69.6663 16.5994 69.6677 16.5996 69.6693 16.5995C69.8604 16.6072 70.0174 16.4497 70.0137 16.2578Z" fill="#E7AD47"/>
<path d="M69.4591 4.8208L70.0091 4.80264L70.0293 6.84968L69.985 6.85114C69.7058 6.86036 69.4742 6.36115 69.4681 5.73735L69.4591 4.8208Z" fill="#E4E4E4"/>
<path d="M70.0163 4.59876L70.0204 4.81174L69.4785 4.82292L69.4685 4.30524C69.5317 4.28803 69.594 4.27766 69.6545 4.27187C69.6561 4.27183 69.6574 4.27158 69.659 4.27155C69.8497 4.25625 70.0126 4.40712 70.0163 4.59876Z" fill="#E7AD47"/>
</g>
<defs>
<filter id="filter0_d_10890_8294" x="0" y="0.00695801" width="74.9989" height="28.9246" filterUnits="userSpaceOnUse" color-interpolation-filters="sRGB">
<feFlood flood-opacity="0" result="BackgroundImageFix"/>
<feColorMatrix in="SourceAlpha" type="matrix" values="0 0 0 0 0 0 0 0 0 0 0 0 0 0 0 0 0 0 127 0" result="hardAlpha"/>
<feOffset dy="4"/>
<feGaussianBlur stdDeviation="2"/>
<feComposite in2="hardAlpha" operator="out"/>
<feColorMatrix type="matrix" values="0 0 0 0 0 0 0 0 0 0 0 0 0 0 0 0 0 0 0.25 0"/>
<feBlend mode="normal" in2="BackgroundImageFix" result="effect1_dropShadow_10890_8294"/>
<feBlend mode="normal" in="SourceGraphic" in2="effect1_dropShadow_10890_8294" result="shape"/>
</filter>
</defs>
</svg>
