<svg width="75" height="29" viewBox="0 0 75 29" fill="none" xmlns="http://www.w3.org/2000/svg">
<g filter="url(#filter0_d_10890_7775)">
<path d="M3.99998 18.1787H46.6487V2.75704H3.99998V18.1787Z" fill="#B0B0B0"/>
<path d="M46.4266 17.957V2.9845L4.22733 2.9845V17.957H46.4266Z" fill="#525D68"/>
<path d="M43.7834 2.75769V18.1791" stroke="#A7B1B9" stroke-miterlimit="10"/>
<path d="M40.7078 2.75903V18.1805" stroke="#A7B1B9" stroke-miterlimit="10"/>
<path d="M37.63 2.76025V18.1817" stroke="#A7B1B9" stroke-miterlimit="10"/>
<path d="M34.5562 2.76074V18.1822" stroke="#A7B1B9" stroke-miterlimit="10"/>
<path d="M31.4771 2.7594V18.1808" stroke="#A7B1B9" stroke-miterlimit="10"/>
<path d="M28.4006 2.75891V18.1804" stroke="#A7B1B9" stroke-miterlimit="10"/>
<path d="M25.3244 2.75891V18.1804" stroke="#A7B1B9" stroke-miterlimit="10"/>
<path d="M22.2473 2.75708V18.1785" stroke="#A7B1B9" stroke-miterlimit="10"/>
<path d="M19.1705 2.76062V18.1821" stroke="#A7B1B9" stroke-miterlimit="10"/>
<path d="M16.0943 2.76062V18.1821" stroke="#A7B1B9" stroke-miterlimit="10"/>
<path d="M13.0161 2.76099V18.1824" stroke="#A7B1B9" stroke-miterlimit="10"/>
<path d="M9.9436 2.75977V18.1812" stroke="#A7B1B9" stroke-miterlimit="10"/>
<path d="M6.86554 2.7605V18.1819" stroke="#A7B1B9" stroke-miterlimit="10"/>
<path d="M65.4532 2.30847H67.0376C69.2253 2.30847 70.9989 4.08203 70.9989 6.26972V14.6672C70.9989 16.8549 69.2253 18.6285 67.0376 18.6285H65.4532C65.1792 18.6285 64.9573 18.4064 64.9573 18.1326V2.80458C64.9573 2.53036 65.1794 2.30847 65.4532 2.30847Z" fill="#363636"/>
<path d="M47.3787 2.75732L67.3163 2.75732C69.1045 2.75732 70.5542 4.20703 70.5542 5.99519V14.9411C70.5542 16.7293 69.1045 18.179 67.3163 18.179H47.3787V2.75732Z" fill="#EC4899"/>
<path d="M69.2708 13.3467L70.7036 13.6241V7.33569L69.2708 7.61306C68.7551 7.71277 68.3825 8.16442 68.3825 8.68973V12.2701C68.3823 12.7954 68.7549 13.247 69.2708 13.3467Z" fill="#F1F1F1"/>
<path d="M70.7036 10.4705V7.33569L69.2708 7.61306C68.7551 7.71277 68.3825 8.16442 68.3825 8.68973V10.4707L70.7036 10.4705Z" fill="#F1F1F1"/>
<path d="M70.4757 10.246V7.60803L69.3104 7.83352C68.9009 7.91302 68.6038 8.2728 68.6038 8.68986V10.2462H70.4757V10.246Z" fill="#7F7F7F"/>
<path d="M68.3802 10.4701V12.2697C68.3802 12.795 68.7528 13.2467 69.2685 13.3464L70.7013 13.6237V10.4701H68.3802Z" fill="#F1F1F1"/>
<path d="M70.4778 10.6909H68.6058V12.2662C68.6058 12.683 68.9027 13.043 69.3124 13.1225L70.4778 13.348V10.6909Z" fill="#7F7F7F"/>
<path d="M47.381 16.7128H58.4648C59.6113 16.7128 60.5408 15.7832 60.5408 14.6367V6.3522C60.5408 5.20569 59.6115 4.27612 58.4648 4.27612L47.381 4.27612V16.7128Z" fill="#E4E4E4"/>
<path d="M68.3829 10.4677H63.4654" stroke="#E4E4E4" stroke-width="0.25" stroke-miterlimit="10"/>
<path d="M68.5042 8.51861L63.4054 7.49585" stroke="#E4E4E4" stroke-width="0.25" stroke-miterlimit="10"/>
<path d="M68.5016 12.4351L63.4028 13.4576" stroke="#E4E4E4" stroke-width="0.25" stroke-miterlimit="10"/>
<path d="M61.1356 15.6252L63.1797 15.8044C63.3327 15.8179 63.4654 15.7103 63.4654 15.5729V5.37038C63.4654 5.23294 63.3327 5.12536 63.1797 5.13884L61.1356 5.31805C60.928 5.33625 60.7697 5.49233 60.7697 5.67874V15.2643C60.7697 15.4509 60.928 15.607 61.1356 15.6252Z" fill="#363636"/>
<path d="M61.5408 3.59723L61.8178 3.59032C61.9041 3.58817 61.973 3.51678 61.9717 3.43086L61.9617 2.78077C61.9603 2.69484 61.8893 2.62694 61.8029 2.62909L61.526 2.636C61.4396 2.63815 61.3707 2.70954 61.372 2.79546L61.3821 3.44556C61.3836 3.53148 61.4547 3.59937 61.5408 3.59723Z" fill="#FACCE3"/>
<path d="M61.7883 3.06061L61.9652 3.05408L61.9577 2.04786L61.7808 2.0544L61.7883 3.06061Z" fill="#FACCE3"/>
<path d="M61.6632 2.34639L61.9798 2.33665C62.1096 2.33265 62.2137 2.22574 62.2122 2.09795L62.1912 0.23155C62.1897 0.103758 62.0833 0.00332385 61.9535 0.00731744L61.637 0.0170584C61.5072 0.021052 61.4031 0.127966 61.4045 0.255758L61.4256 2.12215C61.427 2.25017 61.5335 2.35038 61.6632 2.34639Z" fill="#4E4E4E"/>
<path d="M68.4271 4.6094L68.5845 4.60547C68.6336 4.60425 68.6728 4.56369 68.672 4.51484L68.6663 4.14536C68.6655 4.09652 68.6252 4.05794 68.5761 4.05917L68.4186 4.06309C68.3695 4.06432 68.3304 4.10488 68.3311 4.15372L68.3368 4.5232C68.3378 4.57203 68.3782 4.61062 68.4271 4.6094Z" fill="#FACCE3"/>
<path d="M68.5669 4.30352L68.6674 4.2998L68.6631 3.72798L68.5627 3.73169L68.5669 4.30352Z" fill="#FACCE3"/>
<path d="M68.4938 3.89557L68.6737 3.89004C68.7474 3.88777 68.8067 3.8271 68.8059 3.7543L68.7939 2.69342C68.7931 2.62085 68.7327 2.56364 68.6588 2.56591L68.4789 2.57145C68.405 2.57372 68.3459 2.63439 68.3467 2.70718L68.3587 3.76806C68.3595 3.84086 68.4199 3.89785 68.4938 3.89557Z" fill="#4E4E4E"/>
<path d="M61.5361 17.3471L61.8131 17.3402C61.8994 17.338 61.9705 17.4059 61.9718 17.4918L61.9819 18.1419C61.9832 18.2278 61.9143 18.2992 61.8279 18.3014L61.5509 18.3083C61.4646 18.3104 61.3935 18.2425 61.3922 18.1566L61.3822 17.5065C61.3811 17.4206 61.45 17.3492 61.5361 17.3471Z" fill="#FACCE3"/>
<path d="M61.8123 18.8895L61.9892 18.8829L61.9817 17.8767L61.8048 17.8833L61.8123 18.8895Z" fill="#FACCE3"/>
<path d="M61.6468 18.6023L61.9633 18.5925C62.0931 18.5885 62.1996 18.689 62.201 18.8168L62.2221 20.6832C62.2235 20.8109 62.1194 20.9179 61.9896 20.9219L61.6731 20.9316C61.5433 20.9356 61.4368 20.8352 61.4354 20.7074L61.4144 18.841C61.4129 18.7132 61.517 18.6063 61.6468 18.6023Z" fill="#4E4E4E"/>
<path d="M68.4092 16.3388L68.5667 16.3349C68.6158 16.3337 68.6562 16.3723 68.6569 16.4211L68.6626 16.7906C68.6634 16.8394 68.6242 16.88 68.5752 16.8812L68.4177 16.8852C68.3686 16.8864 68.3282 16.8478 68.3275 16.799L68.3218 16.4295C68.3212 16.3806 68.3604 16.3401 68.4092 16.3388Z" fill="#FACCE3"/>
<path d="M68.5776 17.206L68.678 17.2023L68.6738 16.6304L68.5734 16.6342L68.5776 17.206Z" fill="#FACCE3"/>
<path d="M68.4804 17.0464L68.6603 17.0409C68.734 17.0386 68.7947 17.0956 68.7955 17.1684L68.8074 18.2293C68.8083 18.3018 68.7492 18.3627 68.6753 18.365L68.4954 18.3705C68.4214 18.3728 68.361 18.3158 68.3602 18.243L68.3483 17.1822C68.3474 17.1096 68.4065 17.0487 68.4804 17.0464Z" fill="#4E4E4E"/>
<path d="M69.476 16.0645L70.026 16.0463L70.0059 13.9993L69.9616 14.0008C69.6824 14.01 69.4608 14.5242 69.4669 15.1479L69.476 16.0645Z" fill="#E4E4E4"/>
<path d="M70.0136 16.2581L70.0095 16.0451L69.4676 16.0563L69.4776 16.574C69.5414 16.5885 69.604 16.5963 69.6647 16.5996C69.6663 16.5996 69.6677 16.5998 69.6693 16.5998C69.8604 16.6074 70.0174 16.4499 70.0136 16.2581Z" fill="#E7AD47"/>
<path d="M69.459 4.82104L70.0091 4.80288L70.0293 6.84992L69.985 6.85138C69.7058 6.8606 69.4742 6.36139 69.4681 5.73759L69.459 4.82104Z" fill="#E4E4E4"/>
<path d="M70.0163 4.599L70.0204 4.81198L69.4784 4.82317L69.4684 4.30548C69.5317 4.28827 69.5939 4.2779 69.6545 4.27211C69.656 4.27208 69.6574 4.27182 69.659 4.27179C69.8497 4.2565 70.0126 4.40737 70.0163 4.599Z" fill="#E7AD47"/>
</g>
<defs>
<filter id="filter0_d_10890_7775" x="0" y="0.00720215" width="74.9989" height="28.9246" filterUnits="userSpaceOnUse" color-interpolation-filters="sRGB">
<feFlood flood-opacity="0" result="BackgroundImageFix"/>
<feColorMatrix in="SourceAlpha" type="matrix" values="0 0 0 0 0 0 0 0 0 0 0 0 0 0 0 0 0 0 127 0" result="hardAlpha"/>
<feOffset dy="4"/>
<feGaussianBlur stdDeviation="2"/>
<feComposite in2="hardAlpha" operator="out"/>
<feColorMatrix type="matrix" values="0 0 0 0 0 0 0 0 0 0 0 0 0 0 0 0 0 0 0.25 0"/>
<feBlend mode="normal" in2="BackgroundImageFix" result="effect1_dropShadow_10890_7775"/>
<feBlend mode="normal" in="SourceGraphic" in2="effect1_dropShadow_10890_7775" result="shape"/>
</filter>
</defs>
</svg>
